<?xml version="1.0" encoding="utf-8" ?>
<svg baseProfile="full" height="230" version="1.1" width="950" xmlns="http://www.w3.org/2000/svg" xmlns:ev="http://www.w3.org/2001/xml-events" xmlns:xlink="http://www.w3.org/1999/xlink"><defs /><rect fill="white" height="100%" width="100%" x="0" y="0" /><line stroke="rgb(170,170,170)" x1="25" x2="925" y1="50" y2="50" /><line stroke="rgb(170,170,170)" x1="25" x2="925" y1="60" y2="60" /><line stroke="rgb(170,170,170)" x1="25" x2="925" y1="70" y2="70" /><line stroke="rgb(170,170,170)" x1="25" x2="925" y1="80" y2="80" /><line stroke="rgb(170,170,170)" x1="25" x2="925" y1="90" y2="90" /><line stroke="rgb(170,170,170)" x1="25" x2="925" y1="100" y2="100" /><line stroke="rgb(170,170,170)" x1="25" x2="25" y1="50" y2="100" /><line stroke="rgb(170,170,170)" x1="250" x2="250" y1="50" y2="100" /><line stroke="rgb(170,170,170)" x1="475" x2="475" y1="50" y2="100" /><line stroke="rgb(170,170,170)" x1="700" x2="700" y1="50" y2="100" /><line stroke="rgb(170,170,170)" x1="925" x2="925" y1="50" y2="100" /><line stroke="rgb(170,170,170)" x1="25" x2="925" y1="160" y2="160" /><line stroke="rgb(170,170,170)" x1="25" x2="925" y1="170" y2="170" /><line stroke="rgb(170,170,170)" x1="25" x2="925" y1="180" y2="180" /><line stroke="rgb(170,170,170)" x1="25" x2="925" y1="190" y2="190" /><line stroke="rgb(170,170,170)" x1="25" x2="925" y1="200" y2="200" /><line stroke="rgb(170,170,170)" x1="25" x2="925" y1="210" y2="210" /><line stroke="rgb(170,170,170)" x1="25" x2="25" y1="160" y2="210" /><line stroke="rgb(170,170,170)" x1="250" x2="250" y1="160" y2="210" /><line stroke="rgb(170,170,170)" x1="475" x2="475" y1="160" y2="210" /><line stroke="rgb(170,170,170)" x1="700" x2="700" y1="160" y2="210" /><line stroke="rgb(170,170,170)" x1="925" x2="925" y1="160" y2="210" /><text fill="rgb(170,170,170)" style="font-size:13px; font-family:Arial" x="30" y="45">1</text><text fill="rgb(170,170,170)" style="font-size:13px; font-family:Arial" x="255" y="45">2</text><text fill="rgb(170,170,170)" style="font-size:13px; font-family:Arial" x="480" y="45">3</text><text fill="rgb(170,170,170)" style="font-size:13px; font-family:Arial" x="705" y="45">4</text><text fill="rgb(170,170,170)" style="font-size:13px; font-family:Arial" x="30" y="155">5</text><text fill="rgb(170,170,170)" style="font-size:13px; font-family:Arial" x="255" y="155">6</text><text fill="rgb(170,170,170)" style="font-size:13px; font-family:Arial" x="480" y="155">7</text><text fill="rgb(170,170,170)" style="font-size:13px; font-family:Arial" x="705" y="155">8</text><text fill="black" style="font-size:13px; font-family:Arial" x="62.5" y="75">4</text><text fill="black" style="font-size:13px; font-family:Arial" x="62.5" y="105">0</text><text fill="black" style="font-size:13px; font-family:Arial" x="137.5" y="75">0</text><text fill="black" style="font-size:13px; font-family:Arial" x="137.5" y="105">3</text><text fill="black" style="font-size:13px; font-family:Arial" x="212.5" y="75">2</text><text fill="black" style="font-size:13px; font-family:Arial" x="212.5" y="95">0</text><text fill="black" style="font-size:13px; font-family:Arial" x="275.0" y="55">12</text><text fill="black" style="font-size:13px; font-family:Arial" x="300.0" y="65">12</text><text fill="black" style="font-size:13px; font-family:Arial" x="325.0" y="55">10</text><text fill="black" style="font-size:13px; font-family:Arial" x="350.0" y="55">8</text><text fill="black" style="font-size:13px; font-family:Arial" x="375.0" y="65">8</text><text fill="black" style="font-size:13px; font-family:Arial" x="400.0" y="55">7</text><text fill="black" style="font-size:13px; font-family:Arial" x="425.0" y="55">5</text><text fill="black" style="font-size:13px; font-family:Arial" x="450.0" y="65">5</text><text fill="black" style="font-size:13px; font-family:Arial" x="500.0" y="55">8</text><text fill="black" style="font-size:13px; font-family:Arial" x="525.0" y="55">7</text><text fill="black" style="font-size:13px; font-family:Arial" x="550.0" y="65">5</text><text fill="black" style="font-size:13px; font-family:Arial" x="575.0" y="55">7</text><text fill="black" style="font-size:13px; font-family:Arial" x="600.0" y="55">5</text><text fill="black" style="font-size:13px; font-family:Arial" x="625.0" y="65">5</text><text fill="black" style="font-size:13px; font-family:Arial" x="650.0" y="55">3</text><text fill="black" style="font-size:13px; font-family:Arial" x="675.0" y="55">1</text><text fill="black" style="font-size:13px; font-family:Arial" x="732.1428571428571" y="65">1</text><text fill="black" style="font-size:13px; font-family:Arial" x="764.2857142857143" y="55">3</text><text fill="black" style="font-size:13px; font-family:Arial" x="796.4285714285714" y="55">5</text><text fill="black" style="font-size:13px; font-family:Arial" x="828.5714285714286" y="65">3</text><text fill="black" style="font-size:13px; font-family:Arial" x="860.7142857142858" y="55">3</text><text fill="black" style="font-size:13px; font-family:Arial" x="892.8571428571429" y="55">0</text><text fill="black" style="font-size:13px; font-family:Arial" x="892.8571428571429" y="65">0</text><text fill="black" style="font-size:13px; font-family:Arial" x="892.8571428571429" y="105">0</text><text fill="black" style="font-size:13px; font-family:Arial" x="62.5" y="185">4</text><text fill="black" style="font-size:13px; font-family:Arial" x="62.5" y="215">0</text><text fill="black" style="font-size:13px; font-family:Arial" x="137.5" y="185">0</text><text fill="black" style="font-size:13px; font-family:Arial" x="137.5" y="215">3</text><text fill="black" style="font-size:13px; font-family:Arial" x="212.5" y="185">2</text><text fill="black" style="font-size:13px; font-family:Arial" x="212.5" y="205">0</text><text fill="black" style="font-size:13px; font-family:Arial" x="275.0" y="165">12</text><text fill="black" style="font-size:13px; font-family:Arial" x="300.0" y="175">12</text><text fill="black" style="font-size:13px; font-family:Arial" x="325.0" y="165">10</text><text fill="black" style="font-size:13px; font-family:Arial" x="350.0" y="165">8</text><text fill="black" style="font-size:13px; font-family:Arial" x="375.0" y="175">8</text><text fill="black" style="font-size:13px; font-family:Arial" x="400.0" y="165">7</text><text fill="black" style="font-size:13px; font-family:Arial" x="425.0" y="165">5</text><text fill="black" style="font-size:13px; font-family:Arial" x="450.0" y="175">5</text><text fill="black" style="font-size:13px; font-family:Arial" x="500.0" y="165">8</text><text fill="black" style="font-size:13px; font-family:Arial" x="525.0" y="165">7</text><text fill="black" style="font-size:13px; font-family:Arial" x="550.0" y="175">5</text><text fill="black" style="font-size:13px; font-family:Arial" x="575.0" y="165">7</text><text fill="black" style="font-size:13px; font-family:Arial" x="600.0" y="165">5</text><text fill="black" style="font-size:13px; font-family:Arial" x="625.0" y="175">5</text><text fill="black" style="font-size:13px; font-family:Arial" x="650.0" y="165">3</text><text fill="black" style="font-size:13px; font-family:Arial" x="675.0" y="165">1</text><text fill="black" style="font-size:13px; font-family:Arial" x="732.1428571428571" y="175">1</text><text fill="black" style="font-size:13px; font-family:Arial" x="764.2857142857143" y="165">3</text><text fill="black" style="font-size:13px; font-family:Arial" x="796.4285714285714" y="165">5</text><text fill="black" style="font-size:13px; font-family:Arial" x="828.5714285714286" y="175">3</text><text fill="black" style="font-size:13px; font-family:Arial" x="860.7142857142858" y="165">3</text><text fill="black" style="font-size:13px; font-family:Arial" x="892.8571428571429" y="165">0</text><text fill="black" style="font-size:13px; font-family:Arial" x="892.8571428571429" y="175">0</text><text fill="black" style="font-size:13px; font-family:Arial" x="892.8571428571429" y="215">0</text><text fill="black" style="font-size:13px; font-family:Arial" x="400" y="20">This title must be custom</text><text fill="rgb(170,170,170)" style="font-size:13px; font-family:Arial" x="275" y="27"> Part 1</text><text fill="rgb(170,170,170)" style="font-size:13px; font-family:Arial" x="725" y="27"></text><text fill="rgb(170,170,170)" style="font-size:13px; font-family:Arial" x="275" y="137"> Part 2</text><line stroke="rgb(170,170,170)" x1="272" x2="475" y1="30" y2="30" /><line stroke="rgb(170,170,170)" x1="272" x2="272" y1="25" y2="35" /><line stroke="rgb(170,170,170)" x1="475" x2="700" y1="30" y2="30" /><line stroke="rgb(170,170,170)" x1="700" x2="903" y1="30" y2="30" /><line stroke="rgb(170,170,170)" x1="903" x2="903" y1="25" y2="35" /><line stroke="rgb(170,170,170)" x1="272" x2="475" y1="140" y2="140" /><line stroke="rgb(170,170,170)" x1="272" x2="272" y1="135" y2="145" /><line stroke="rgb(170,170,170)" x1="475" x2="700" y1="140" y2="140" /><line stroke="rgb(170,170,170)" x1="700" x2="903" y1="140" y2="140" /><line stroke="rgb(170,170,170)" x1="903" x2="903" y1="135" y2="145" /></svg>