<?xml version="1.0" encoding="utf-8" ?>
<svg baseProfile="full" height="780" version="1.1" width="950" xmlns="http://www.w3.org/2000/svg" xmlns:ev="http://www.w3.org/2001/xml-events" xmlns:xlink="http://www.w3.org/1999/xlink"><defs /><rect fill="white" height="100%" width="100%" x="0" y="0" /><line stroke="rgb(170,170,170)" x1="25" x2="925" y1="50" y2="50" /><line stroke="rgb(170,170,170)" x1="25" x2="925" y1="60" y2="60" /><line stroke="rgb(170,170,170)" x1="25" x2="925" y1="70" y2="70" /><line stroke="rgb(170,170,170)" x1="25" x2="925" y1="80" y2="80" /><line stroke="rgb(170,170,170)" x1="25" x2="925" y1="90" y2="90" /><line stroke="rgb(170,170,170)" x1="25" x2="925" y1="100" y2="100" /><line stroke="rgb(170,170,170)" x1="25" x2="25" y1="50" y2="100" /><line stroke="rgb(170,170,170)" x1="250" x2="250" y1="50" y2="100" /><line stroke="rgb(170,170,170)" x1="475" x2="475" y1="50" y2="100" /><line stroke="rgb(170,170,170)" x1="700" x2="700" y1="50" y2="100" /><line stroke="rgb(170,170,170)" x1="925" x2="925" y1="50" y2="100" /><line stroke="rgb(170,170,170)" x1="25" x2="925" y1="160" y2="160" /><line stroke="rgb(170,170,170)" x1="25" x2="925" y1="170" y2="170" /><line stroke="rgb(170,170,170)" x1="25" x2="925" y1="180" y2="180" /><line stroke="rgb(170,170,170)" x1="25" x2="925" y1="190" y2="190" /><line stroke="rgb(170,170,170)" x1="25" x2="925" y1="200" y2="200" /><line stroke="rgb(170,170,170)" x1="25" x2="925" y1="210" y2="210" /><line stroke="rgb(170,170,170)" x1="25" x2="25" y1="160" y2="210" /><line stroke="rgb(170,170,170)" x1="250" x2="250" y1="160" y2="210" /><line stroke="rgb(170,170,170)" x1="475" x2="475" y1="160" y2="210" /><line stroke="rgb(170,170,170)" x1="700" x2="700" y1="160" y2="210" /><line stroke="rgb(170,170,170)" x1="925" x2="925" y1="160" y2="210" /><line stroke="rgb(170,170,170)" x1="25" x2="925" y1="270" y2="270" /><line stroke="rgb(170,170,170)" x1="25" x2="925" y1="280" y2="280" /><line stroke="rgb(170,170,170)" x1="25" x2="925" y1="290" y2="290" /><line stroke="rgb(170,170,170)" x1="25" x2="925" y1="300" y2="300" /><line stroke="rgb(170,170,170)" x1="25" x2="925" y1="310" y2="310" /><line stroke="rgb(170,170,170)" x1="25" x2="925" y1="320" y2="320" /><line stroke="rgb(170,170,170)" x1="25" x2="25" y1="270" y2="320" /><line stroke="rgb(170,170,170)" x1="250" x2="250" y1="270" y2="320" /><line stroke="rgb(170,170,170)" x1="475" x2="475" y1="270" y2="320" /><line stroke="rgb(170,170,170)" x1="700" x2="700" y1="270" y2="320" /><line stroke="rgb(170,170,170)" x1="925" x2="925" y1="270" y2="320" /><line stroke="rgb(170,170,170)" x1="25" x2="925" y1="380" y2="380" /><line stroke="rgb(170,170,170)" x1="25" x2="925" y1="390" y2="390" /><line stroke="rgb(170,170,170)" x1="25" x2="925" y1="400" y2="400" /><line stroke="rgb(170,170,170)" x1="25" x2="925" y1="410" y2="410" /><line stroke="rgb(170,170,170)" x1="25" x2="925" y1="420" y2="420" /><line stroke="rgb(170,170,170)" x1="25" x2="925" y1="430" y2="430" /><line stroke="rgb(170,170,170)" x1="25" x2="25" y1="380" y2="430" /><line stroke="rgb(170,170,170)" x1="250" x2="250" y1="380" y2="430" /><line stroke="rgb(170,170,170)" x1="475" x2="475" y1="380" y2="430" /><line stroke="rgb(170,170,170)" x1="700" x2="700" y1="380" y2="430" /><line stroke="rgb(170,170,170)" x1="925" x2="925" y1="380" y2="430" /><line stroke="rgb(170,170,170)" x1="25" x2="925" y1="490" y2="490" /><line stroke="rgb(170,170,170)" x1="25" x2="925" y1="500" y2="500" /><line stroke="rgb(170,170,170)" x1="25" x2="925" y1="510" y2="510" /><line stroke="rgb(170,170,170)" x1="25" x2="925" y1="520" y2="520" /><line stroke="rgb(170,170,170)" x1="25" x2="925" y1="530" y2="530" /><line stroke="rgb(170,170,170)" x1="25" x2="925" y1="540" y2="540" /><line stroke="rgb(170,170,170)" x1="25" x2="25" y1="490" y2="540" /><line stroke="rgb(170,170,170)" x1="250" x2="250" y1="490" y2="540" /><line stroke="rgb(170,170,170)" x1="475" x2="475" y1="490" y2="540" /><line stroke="rgb(170,170,170)" x1="700" x2="700" y1="490" y2="540" /><line stroke="rgb(170,170,170)" x1="925" x2="925" y1="490" y2="540" /><line stroke="rgb(170,170,170)" x1="25" x2="925" y1="600" y2="600" /><line stroke="rgb(170,170,170)" x1="25" x2="925" y1="610" y2="610" /><line stroke="rgb(170,170,170)" x1="25" x2="925" y1="620" y2="620" /><line stroke="rgb(170,170,170)" x1="25" x2="925" y1="630" y2="630" /><line stroke="rgb(170,170,170)" x1="25" x2="925" y1="640" y2="640" /><line stroke="rgb(170,170,170)" x1="25" x2="925" y1="650" y2="650" /><line stroke="rgb(170,170,170)" x1="25" x2="25" y1="600" y2="650" /><line stroke="rgb(170,170,170)" x1="250" x2="250" y1="600" y2="650" /><line stroke="rgb(170,170,170)" x1="475" x2="475" y1="600" y2="650" /><line stroke="rgb(170,170,170)" x1="700" x2="700" y1="600" y2="650" /><line stroke="rgb(170,170,170)" x1="925" x2="925" y1="600" y2="650" /><line stroke="rgb(170,170,170)" x1="25" x2="925" y1="710" y2="710" /><line stroke="rgb(170,170,170)" x1="25" x2="925" y1="720" y2="720" /><line stroke="rgb(170,170,170)" x1="25" x2="925" y1="730" y2="730" /><line stroke="rgb(170,170,170)" x1="25" x2="925" y1="740" y2="740" /><line stroke="rgb(170,170,170)" x1="25" x2="925" y1="750" y2="750" /><line stroke="rgb(170,170,170)" x1="25" x2="925" y1="760" y2="760" /><line stroke="rgb(170,170,170)" x1="25" x2="25" y1="710" y2="760" /><line stroke="rgb(170,170,170)" x1="250" x2="250" y1="710" y2="760" /><line stroke="rgb(170,170,170)" x1="475" x2="475" y1="710" y2="760" /><line stroke="rgb(170,170,170)" x1="700" x2="700" y1="710" y2="760" /><line stroke="rgb(170,170,170)" x1="925" x2="925" y1="710" y2="760" /><text fill="rgb(170,170,170)" style="font-size:13px; font-family:Arial" x="30" y="45">1</text><text fill="rgb(170,170,170)" style="font-size:13px; font-family:Arial" x="255" y="45">2</text><text fill="rgb(170,170,170)" style="font-size:13px; font-family:Arial" x="480" y="45">3</text><text fill="rgb(170,170,170)" style="font-size:13px; font-family:Arial" x="705" y="45">4</text><text fill="rgb(170,170,170)" style="font-size:13px; font-family:Arial" x="30" y="155">5</text><text fill="rgb(170,170,170)" style="font-size:13px; font-family:Arial" x="255" y="155">6</text><text fill="rgb(170,170,170)" style="font-size:13px; font-family:Arial" x="480" y="155">7</text><text fill="rgb(170,170,170)" style="font-size:13px; font-family:Arial" x="705" y="155">8</text><text fill="rgb(170,170,170)" style="font-size:13px; font-family:Arial" x="30" y="265">9</text><text fill="rgb(170,170,170)" style="font-size:13px; font-family:Arial" x="255" y="265">10</text><text fill="rgb(170,170,170)" style="font-size:13px; font-family:Arial" x="480" y="265">11</text><text fill="rgb(170,170,170)" style="font-size:13px; font-family:Arial" x="705" y="265">12</text><text fill="rgb(170,170,170)" style="font-size:13px; font-family:Arial" x="30" y="375">13</text><text fill="rgb(170,170,170)" style="font-size:13px; font-family:Arial" x="255" y="375">14</text><text fill="rgb(170,170,170)" style="font-size:13px; font-family:Arial" x="480" y="375">15</text><text fill="rgb(170,170,170)" style="font-size:13px; font-family:Arial" x="705" y="375">16</text><text fill="rgb(170,170,170)" style="font-size:13px; font-family:Arial" x="30" y="485">17</text><text fill="rgb(170,170,170)" style="font-size:13px; font-family:Arial" x="255" y="485">18</text><text fill="rgb(170,170,170)" style="font-size:13px; font-family:Arial" x="480" y="485">19</text><text fill="rgb(170,170,170)" style="font-size:13px; font-family:Arial" x="705" y="485">20</text><text fill="rgb(170,170,170)" style="font-size:13px; font-family:Arial" x="30" y="595">21</text><text fill="rgb(170,170,170)" style="font-size:13px; font-family:Arial" x="255" y="595">22</text><text fill="rgb(170,170,170)" style="font-size:13px; font-family:Arial" x="480" y="595">23</text><text fill="rgb(170,170,170)" style="font-size:13px; font-family:Arial" x="705" y="595">24</text><text fill="rgb(170,170,170)" style="font-size:13px; font-family:Arial" x="30" y="705">25</text><text fill="rgb(170,170,170)" style="font-size:13px; font-family:Arial" x="255" y="705">26</text><text fill="rgb(170,170,170)" style="font-size:13px; font-family:Arial" x="480" y="705">27</text><text fill="rgb(170,170,170)" style="font-size:13px; font-family:Arial" x="705" y="705">28</text><text fill="black" style="font-size:13px; font-family:Arial" x="53.125" y="95">0</text><text fill="black" style="font-size:13px; font-family:Arial" x="53.125" y="75">2</text><text fill="black" style="font-size:13px; font-family:Arial" x="109.375" y="65">3</text><text fill="black" style="font-size:13px; font-family:Arial" x="109.375" y="105">0</text><text fill="black" style="font-size:13px; font-family:Arial" x="165.625" y="75">0</text><text fill="black" style="font-size:13px; font-family:Arial" x="165.625" y="95">0</text><text fill="black" style="font-size:13px; font-family:Arial" x="221.875" y="75">2</text><text fill="black" style="font-size:13px; font-family:Arial" x="221.875" y="105">1</text><text fill="black" style="font-size:13px; font-family:Arial" x="275.0" y="75">2</text><text fill="black" style="font-size:13px; font-family:Arial" x="275.0" y="105">0</text><text fill="black" style="font-size:13px; font-family:Arial" x="300.0" y="75">0</text><text fill="black" style="font-size:13px; font-family:Arial" x="325.0" y="75">5</text><text fill="black" style="font-size:13px; font-family:Arial" x="350.0" y="75">9</text><text fill="black" style="font-size:13px; font-family:Arial" x="350.0" y="105">8</text><text fill="black" style="font-size:13px; font-family:Arial" x="375.0" y="75">7</text><text fill="black" style="font-size:13px; font-family:Arial" x="400.0" y="75">5</text><text fill="black" style="font-size:13px; font-family:Arial" x="400.0" y="105">5</text><text fill="black" style="font-size:13px; font-family:Arial" x="425.0" y="75">4</text><text fill="black" style="font-size:13px; font-family:Arial" x="450.0" y="75">2</text><text fill="black" style="font-size:13px; font-family:Arial" x="450.0" y="105">1</text><text fill="black" style="font-size:13px; font-family:Arial" x="503.125" y="95">0</text><text fill="black" style="font-size:13px; font-family:Arial" x="503.125" y="75">2</text><text fill="black" style="font-size:13px; font-family:Arial" x="559.375" y="65">3</text><text fill="black" style="font-size:13px; font-family:Arial" x="559.375" y="105">0</text><text fill="black" style="font-size:13px; font-family:Arial" x="615.625" y="75">0</text><text fill="black" style="font-size:13px; font-family:Arial" x="615.625" y="95">0</text><text fill="black" style="font-size:13px; font-family:Arial" x="671.875" y="75">2</text><text fill="black" style="font-size:13px; font-family:Arial" x="671.875" y="105">1</text><text fill="black" style="font-size:13px; font-family:Arial" x="725.0" y="75">2</text><text fill="black" style="font-size:13px; font-family:Arial" x="725.0" y="105">0</text><text fill="black" style="font-size:13px; font-family:Arial" x="750.0" y="75">0</text><text fill="black" style="font-size:13px; font-family:Arial" x="775.0" y="75">5</text><text fill="black" style="font-size:13px; font-family:Arial" x="800.0" y="75">9</text><text fill="black" style="font-size:13px; font-family:Arial" x="800.0" y="105">8</text><text fill="black" style="font-size:13px; font-family:Arial" x="825.0" y="75">7</text><text fill="black" style="font-size:13px; font-family:Arial" x="825.0" y="105">7</text><text fill="black" style="font-size:13px; font-family:Arial" x="850.0" y="75">10</text><text fill="black" style="font-size:13px; font-family:Arial" x="850.0" y="105">10</text><text fill="black" style="font-size:13px; font-family:Arial" x="875.0" y="75">7</text><text fill="black" style="font-size:13px; font-family:Arial" x="875.0" y="105">7</text><text fill="black" style="font-size:13px; font-family:Arial" x="900.0" y="75">5</text><text fill="black" style="font-size:13px; font-family:Arial" x="900.0" y="105">5</text><text fill="black" style="font-size:13px; font-family:Arial" x="62.5" y="185">4</text><text fill="black" style="font-size:13px; font-family:Arial" x="62.5" y="215">0</text><text fill="black" style="font-size:13px; font-family:Arial" x="137.5" y="185">0</text><text fill="black" style="font-size:13px; font-family:Arial" x="137.5" y="215">3</text><text fill="black" style="font-size:13px; font-family:Arial" x="212.5" y="185">2</text><text fill="black" style="font-size:13px; font-family:Arial" x="212.5" y="205">0</text><text fill="black" style="font-size:13px; font-family:Arial" x="275.0" y="165">12</text><text fill="black" style="font-size:13px; font-family:Arial" x="300.0" y="175">12</text><text fill="black" style="font-size:13px; font-family:Arial" x="325.0" y="165">10</text><text fill="black" style="font-size:13px; font-family:Arial" x="350.0" y="165">8</text><text fill="black" style="font-size:13px; font-family:Arial" x="375.0" y="175">8</text><text fill="black" style="font-size:13px; font-family:Arial" x="400.0" y="165">7</text><text fill="black" style="font-size:13px; font-family:Arial" x="425.0" y="165">5</text><text fill="black" style="font-size:13px; font-family:Arial" x="450.0" y="175">5</text><text fill="black" style="font-size:13px; font-family:Arial" x="500.0" y="165">8</text><text fill="black" style="font-size:13px; font-family:Arial" x="525.0" y="165">7</text><text fill="black" style="font-size:13px; font-family:Arial" x="550.0" y="175">5</text><text fill="black" style="font-size:13px; font-family:Arial" x="575.0" y="165">7</text><text fill="black" style="font-size:13px; font-family:Arial" x="600.0" y="165">5</text><text fill="black" style="font-size:13px; font-family:Arial" x="625.0" y="175">5</text><text fill="black" style="font-size:13px; font-family:Arial" x="650.0" y="165">3</text><text fill="black" style="font-size:13px; font-family:Arial" x="675.0" y="165">1</text><text fill="black" style="font-size:13px; font-family:Arial" x="732.1428571428571" y="175">1</text><text fill="black" style="font-size:13px; font-family:Arial" x="764.2857142857143" y="165">3</text><text fill="black" style="font-size:13px; font-family:Arial" x="796.4285714285714" y="165">5</text><text fill="black" style="font-size:13px; font-family:Arial" x="828.5714285714286" y="175">3</text><text fill="black" style="font-size:13px; font-family:Arial" x="860.7142857142858" y="165">3</text><text fill="black" style="font-size:13px; font-family:Arial" x="892.8571428571429" y="165">0</text><text fill="black" style="font-size:13px; font-family:Arial" x="892.8571428571429" y="175">0</text><text fill="black" style="font-size:13px; font-family:Arial" x="892.8571428571429" y="215">0</text><text fill="black" style="font-size:13px; font-family:Arial" x="57.142857142857146" y="275">5</text><text fill="black" style="font-size:13px; font-family:Arial" x="57.142857142857146" y="325">5</text><text fill="black" style="font-size:13px; font-family:Arial" x="89.28571428571429" y="285">5</text><text fill="black" style="font-size:13px; font-family:Arial" x="121.42857142857144" y="275">8</text><text fill="black" style="font-size:13px; font-family:Arial" x="153.57142857142858" y="275">7</text><text fill="black" style="font-size:13px; font-family:Arial" x="185.71428571428572" y="285">5</text><text fill="black" style="font-size:13px; font-family:Arial" x="217.8571428571429" y="275">5</text><text fill="black" style="font-size:13px; font-family:Arial" x="282.14285714285717" y="275">3</text><text fill="black" style="font-size:13px; font-family:Arial" x="282.14285714285717" y="325">3</text><text fill="black" style="font-size:13px; font-family:Arial" x="314.2857142857143" y="285">3</text><text fill="black" style="font-size:13px; font-family:Arial" x="346.42857142857144" y="275">5</text><text fill="black" style="font-size:13px; font-family:Arial" x="378.57142857142856" y="275">3</text><text fill="black" style="font-size:13px; font-family:Arial" x="410.7142857142857" y="285">3</text><text fill="black" style="font-size:13px; font-family:Arial" x="442.8571428571429" y="275">3</text><text fill="black" style="font-size:13px; font-family:Arial" x="507.14285714285717" y="275">5</text><text fill="black" style="font-size:13px; font-family:Arial" x="507.14285714285717" y="325">5</text><text fill="black" style="font-size:13px; font-family:Arial" x="539.2857142857143" y="285">5</text><text fill="black" style="font-size:13px; font-family:Arial" x="571.4285714285714" y="275">8</text><text fill="black" style="font-size:13px; font-family:Arial" x="603.5714285714286" y="275">7</text><text fill="black" style="font-size:13px; font-family:Arial" x="635.7142857142858" y="285">5</text><text fill="black" style="font-size:13px; font-family:Arial" x="667.8571428571429" y="275">5</text><text fill="black" style="font-size:13px; font-family:Arial" x="732.1428571428571" y="275">10</text><text fill="black" style="font-size:13px; font-family:Arial" x="732.1428571428571" y="305">0</text><text fill="black" style="font-size:13px; font-family:Arial" x="764.2857142857143" y="285">10</text><text fill="black" style="font-size:13px; font-family:Arial" x="796.4285714285714" y="275">10</text><text fill="black" style="font-size:13px; font-family:Arial" x="828.5714285714286" y="275">10</text><text fill="black" style="font-size:13px; font-family:Arial" x="860.7142857142858" y="275">12</text><text fill="black" style="font-size:13px; font-family:Arial" x="892.8571428571429" y="275">10</text><text fill="black" style="font-size:13px; font-family:Arial" x="57.142857142857146" y="385">5</text><text fill="black" style="font-size:13px; font-family:Arial" x="57.142857142857146" y="435">5</text><text fill="black" style="font-size:13px; font-family:Arial" x="89.28571428571429" y="395">5</text><text fill="black" style="font-size:13px; font-family:Arial" x="121.42857142857144" y="385">8</text><text fill="black" style="font-size:13px; font-family:Arial" x="153.57142857142858" y="385">7</text><text fill="black" style="font-size:13px; font-family:Arial" x="185.71428571428572" y="395">5</text><text fill="black" style="font-size:13px; font-family:Arial" x="217.8571428571429" y="385">5</text><text fill="black" style="font-size:13px; font-family:Arial" x="282.14285714285717" y="385">3</text><text fill="black" style="font-size:13px; font-family:Arial" x="282.14285714285717" y="435">3</text><text fill="black" style="font-size:13px; font-family:Arial" x="314.2857142857143" y="395">3</text><text fill="black" style="font-size:13px; font-family:Arial" x="346.42857142857144" y="385">5</text><text fill="black" style="font-size:13px; font-family:Arial" x="378.57142857142856" y="385">3</text><text fill="black" style="font-size:13px; font-family:Arial" x="410.7142857142857" y="395">3</text><text fill="black" style="font-size:13px; font-family:Arial" x="442.8571428571429" y="385">3</text><text fill="black" style="font-size:13px; font-family:Arial" x="503.125" y="385">1</text><text fill="black" style="font-size:13px; font-family:Arial" x="503.125" y="435">1</text><text fill="black" style="font-size:13px; font-family:Arial" x="531.25" y="395">1</text><text fill="black" style="font-size:13px; font-family:Arial" x="559.375" y="385">3</text><text fill="black" style="font-size:13px; font-family:Arial" x="587.5" y="435">3</text><text fill="black" style="font-size:13px; font-family:Arial" x="587.5" y="385">5</text><text fill="black" style="font-size:13px; font-family:Arial" x="615.625" y="395">3</text><text fill="black" style="font-size:13px; font-family:Arial" x="643.75" y="385">3</text><text fill="black" style="font-size:13px; font-family:Arial" x="671.875" y="385">0</text><text fill="black" style="font-size:13px; font-family:Arial" x="671.875" y="395">0</text><text fill="black" style="font-size:13px; font-family:Arial" x="671.875" y="435">0</text><text fill="black" style="font-size:13px; font-family:Arial" x="57.142857142857146" y="495">5</text><text fill="black" style="font-size:13px; font-family:Arial" x="57.142857142857146" y="545">5</text><text fill="black" style="font-size:13px; font-family:Arial" x="89.28571428571429" y="505">5</text><text fill="black" style="font-size:13px; font-family:Arial" x="121.42857142857144" y="495">7</text><text fill="black" style="font-size:13px; font-family:Arial" x="153.57142857142858" y="495">8</text><text fill="black" style="font-size:13px; font-family:Arial" x="185.71428571428572" y="505">5</text><text fill="black" style="font-size:13px; font-family:Arial" x="217.8571428571429" y="495">5</text><text fill="black" style="font-size:13px; font-family:Arial" x="282.14285714285717" y="495">8</text><text fill="black" style="font-size:13px; font-family:Arial" x="282.14285714285717" y="545">8</text><text fill="black" style="font-size:13px; font-family:Arial" x="314.2857142857143" y="505">8</text><text fill="black" style="font-size:13px; font-family:Arial" x="346.42857142857144" y="495">10</text><text fill="black" style="font-size:13px; font-family:Arial" x="378.57142857142856" y="495">12</text><text fill="black" style="font-size:13px; font-family:Arial" x="410.7142857142857" y="495">10</text><text fill="black" style="font-size:13px; font-family:Arial" x="442.8571428571429" y="495">8</text><text fill="black" style="font-size:13px; font-family:Arial" x="507.14285714285717" y="495">5</text><text fill="black" style="font-size:13px; font-family:Arial" x="507.14285714285717" y="545">5</text><text fill="black" style="font-size:13px; font-family:Arial" x="539.2857142857143" y="505">5</text><text fill="black" style="font-size:13px; font-family:Arial" x="571.4285714285714" y="495">7</text><text fill="black" style="font-size:13px; font-family:Arial" x="603.5714285714286" y="495">8</text><text fill="black" style="font-size:13px; font-family:Arial" x="635.7142857142858" y="505">5</text><text fill="black" style="font-size:13px; font-family:Arial" x="667.8571428571429" y="495">5</text><text fill="black" style="font-size:13px; font-family:Arial" x="732.1428571428571" y="495">3</text><text fill="black" style="font-size:13px; font-family:Arial" x="732.1428571428571" y="545">3</text><text fill="black" style="font-size:13px; font-family:Arial" x="764.2857142857143" y="505">3</text><text fill="black" style="font-size:13px; font-family:Arial" x="796.4285714285714" y="495">3</text><text fill="black" style="font-size:13px; font-family:Arial" x="828.5714285714286" y="495">3</text><text fill="black" style="font-size:13px; font-family:Arial" x="860.7142857142858" y="505">3</text><text fill="black" style="font-size:13px; font-family:Arial" x="892.8571428571429" y="495">3</text><text fill="black" style="font-size:13px; font-family:Arial" x="57.142857142857146" y="605">5</text><text fill="black" style="font-size:13px; font-family:Arial" x="57.142857142857146" y="655">5</text><text fill="black" style="font-size:13px; font-family:Arial" x="89.28571428571429" y="615">5</text><text fill="black" style="font-size:13px; font-family:Arial" x="121.42857142857144" y="605">7</text><text fill="black" style="font-size:13px; font-family:Arial" x="153.57142857142858" y="605">8</text><text fill="black" style="font-size:13px; font-family:Arial" x="185.71428571428572" y="615">5</text><text fill="black" style="font-size:13px; font-family:Arial" x="217.8571428571429" y="605">5</text><text fill="black" style="font-size:13px; font-family:Arial" x="282.14285714285717" y="605">8</text><text fill="black" style="font-size:13px; font-family:Arial" x="282.14285714285717" y="655">8</text><text fill="black" style="font-size:13px; font-family:Arial" x="314.2857142857143" y="615">8</text><text fill="black" style="font-size:13px; font-family:Arial" x="346.42857142857144" y="605">10</text><text fill="black" style="font-size:13px; font-family:Arial" x="378.57142857142856" y="605">12</text><text fill="black" style="font-size:13px; font-family:Arial" x="410.7142857142857" y="605">10</text><text fill="black" style="font-size:13px; font-family:Arial" x="442.8571428571429" y="605">8</text><text fill="black" style="font-size:13px; font-family:Arial" x="507.14285714285717" y="605">5</text><text fill="black" style="font-size:13px; font-family:Arial" x="507.14285714285717" y="655">5</text><text fill="black" style="font-size:13px; font-family:Arial" x="539.2857142857143" y="615">5</text><text fill="black" style="font-size:13px; font-family:Arial" x="571.4285714285714" y="605">7</text><text fill="black" style="font-size:13px; font-family:Arial" x="603.5714285714286" y="605">8</text><text fill="black" style="font-size:13px; font-family:Arial" x="635.7142857142858" y="615">5</text><text fill="black" style="font-size:13px; font-family:Arial" x="667.8571428571429" y="605">5</text><text fill="black" style="font-size:13px; font-family:Arial" x="732.1428571428571" y="605">3</text><text fill="black" style="font-size:13px; font-family:Arial" x="732.1428571428571" y="655">3</text><text fill="black" style="font-size:13px; font-family:Arial" x="764.2857142857143" y="615">3</text><text fill="black" style="font-size:13px; font-family:Arial" x="796.4285714285714" y="605">3</text><text fill="black" style="font-size:13px; font-family:Arial" x="828.5714285714286" y="605">3</text><text fill="black" style="font-size:13px; font-family:Arial" x="860.7142857142858" y="615">3</text><text fill="black" style="font-size:13px; font-family:Arial" x="892.8571428571429" y="605">3</text><text fill="black" style="font-size:13px; font-family:Arial" x="53.125" y="715">1</text><text fill="black" style="font-size:13px; font-family:Arial" x="53.125" y="765">1</text><text fill="black" style="font-size:13px; font-family:Arial" x="81.25" y="725">1</text><text fill="black" style="font-size:13px; font-family:Arial" x="109.375" y="715">3</text><text fill="black" style="font-size:13px; font-family:Arial" x="137.5" y="765">3</text><text fill="black" style="font-size:13px; font-family:Arial" x="137.5" y="715">5</text><text fill="black" style="font-size:13px; font-family:Arial" x="165.625" y="725">3</text><text fill="black" style="font-size:13px; font-family:Arial" x="193.75" y="715">3</text><text fill="black" style="font-size:13px; font-family:Arial" x="221.875" y="715">0</text><text fill="black" style="font-size:13px; font-family:Arial" x="221.875" y="725">0</text><text fill="black" style="font-size:13px; font-family:Arial" x="221.875" y="765">0</text><text fill="black" style="font-size:13px; font-family:Arial" x="287.5" y="715">0</text><text fill="black" style="font-size:13px; font-family:Arial" x="287.5" y="765">0</text><text fill="black" style="font-size:13px; font-family:Arial" x="362.5" y="725">3</text><text fill="black" style="font-size:13px; font-family:Arial" x="437.5" y="715">0</text><text fill="black" style="font-size:13px; font-family:Arial" x="512.5" y="715">0</text><text fill="black" style="font-size:13px; font-family:Arial" x="512.5" y="765">0</text><text fill="black" style="font-size:13px; font-family:Arial" x="587.5" y="725">1</text><text fill="black" style="font-size:13px; font-family:Arial" x="662.5" y="715">0</text><text fill="black" style="font-size:13px; font-family:Arial" x="728.125" y="715">0</text><text fill="black" style="font-size:13px; font-family:Arial" x="728.125" y="765">0</text><text fill="black" style="font-size:13px; font-family:Arial" x="784.375" y="725">0</text><text fill="black" style="font-size:13px; font-family:Arial" x="840.625" y="715">0</text><text fill="black" style="font-size:13px; font-family:Arial" x="896.875" y="755">0</text><text fill="black" style="font-size:13px; font-family:Arial" x="896.875" y="735">2</text><text fill="black" style="font-size:13px; font-family:Arial" x="400" y="20">This title must be custom</text><text fill="rgb(170,170,170)" style="font-size:13px; font-family:Arial" x="50" y="27"> Intro</text><text fill="rgb(170,170,170)" style="font-size:13px; font-family:Arial" x="50" y="137"></text><text fill="rgb(170,170,170)" style="font-size:13px; font-family:Arial" x="275" y="137"> Part 1</text><text fill="rgb(170,170,170)" style="font-size:13px; font-family:Arial" x="725" y="137"></text><text fill="rgb(170,170,170)" style="font-size:13px; font-family:Arial" x="50" y="247"> Part 2</text><text fill="rgb(170,170,170)" style="font-size:13px; font-family:Arial" x="500" y="357"></text><text fill="rgb(170,170,170)" style="font-size:13px; font-family:Arial" x="725" y="357"> Part 3</text><text fill="rgb(170,170,170)" style="font-size:13px; font-family:Arial" x="725" y="577"></text><text fill="rgb(170,170,170)" style="font-size:13px; font-family:Arial" x="50" y="687"> Outro</text><line stroke="rgb(170,170,170)" x1="47" x2="250" y1="30" y2="30" /><line stroke="rgb(170,170,170)" x1="47" x2="47" y1="25" y2="35" /><line stroke="rgb(170,170,170)" x1="250" x2="475" y1="30" y2="30" /><line stroke="rgb(170,170,170)" x1="475" x2="700" y1="30" y2="30" /><line stroke="rgb(170,170,170)" x1="700" x2="925" y1="30" y2="30" /><line stroke="rgb(170,170,170)" x1="25" x2="228" y1="140" y2="140" /><line stroke="rgb(170,170,170)" x1="228" x2="228" y1="135" y2="145" /><line stroke="rgb(170,170,170)" x1="272" x2="475" y1="140" y2="140" /><line stroke="rgb(170,170,170)" x1="272" x2="272" y1="135" y2="145" /><line stroke="rgb(170,170,170)" x1="475" x2="700" y1="140" y2="140" /><line stroke="rgb(170,170,170)" x1="700" x2="903" y1="140" y2="140" /><line stroke="rgb(170,170,170)" x1="903" x2="903" y1="135" y2="145" /><line stroke="rgb(170,170,170)" x1="47" x2="250" y1="250" y2="250" /><line stroke="rgb(170,170,170)" x1="47" x2="47" y1="245" y2="255" /><line stroke="rgb(170,170,170)" x1="250" x2="475" y1="250" y2="250" /><line stroke="rgb(170,170,170)" x1="475" x2="700" y1="250" y2="250" /><line stroke="rgb(170,170,170)" x1="700" x2="925" y1="250" y2="250" /><line stroke="rgb(170,170,170)" x1="25" x2="250" y1="360" y2="360" /><line stroke="rgb(170,170,170)" x1="250" x2="475" y1="360" y2="360" /><line stroke="rgb(170,170,170)" x1="475" x2="678" y1="360" y2="360" /><line stroke="rgb(170,170,170)" x1="678" x2="678" y1="355" y2="365" /><line stroke="rgb(170,170,170)" x1="722" x2="925" y1="360" y2="360" /><line stroke="rgb(170,170,170)" x1="722" x2="722" y1="355" y2="365" /><line stroke="rgb(170,170,170)" x1="25" x2="250" y1="470" y2="470" /><line stroke="rgb(170,170,170)" x1="250" x2="475" y1="470" y2="470" /><line stroke="rgb(170,170,170)" x1="475" x2="700" y1="470" y2="470" /><line stroke="rgb(170,170,170)" x1="700" x2="925" y1="470" y2="470" /><line stroke="rgb(170,170,170)" x1="25" x2="250" y1="580" y2="580" /><line stroke="rgb(170,170,170)" x1="250" x2="475" y1="580" y2="580" /><line stroke="rgb(170,170,170)" x1="475" x2="700" y1="580" y2="580" /><line stroke="rgb(170,170,170)" x1="700" x2="903" y1="580" y2="580" /><line stroke="rgb(170,170,170)" x1="903" x2="903" y1="575" y2="585" /><line stroke="rgb(170,170,170)" x1="47" x2="250" y1="690" y2="690" /><line stroke="rgb(170,170,170)" x1="47" x2="47" y1="685" y2="695" /><line stroke="rgb(170,170,170)" x1="250" x2="475" y1="690" y2="690" /><line stroke="rgb(170,170,170)" x1="475" x2="678" y1="690" y2="690" /><line stroke="rgb(170,170,170)" x1="678" x2="678" y1="685" y2="695" /></svg>